
<svg xmlns="http://www.w3.org/2000/svg" version="1.1" xmlns:xlink="http://www.w3.org/1999/xlink" preserveAspectRatio="none" x="0px" y="0px" width="480px" height="360px" viewBox="0 0 480 360">
<defs>
<linearGradient id="Gradient_1" gradientUnits="userSpaceOnUse" x1="219.9" y1="-42.400000000000006" x2="219.9" y2="359.20000000000005" spreadMethod="pad">
<stop  offset="0%" stop-color="#4006CC"/>

<stop  offset="100%" stop-color="#406BFF"/>
</linearGradient>

<linearGradient id="Gradient_2" gradientUnits="userSpaceOnUse" x1="79.85" y1="-42.95000000000002" x2="79.85" y2="351.75" spreadMethod="pad">
<stop  offset="0%" stop-color="#3810B9"/>

<stop  offset="100%" stop-color="#3658D6"/>
</linearGradient>

<linearGradient id="Gradient_3" gradientUnits="userSpaceOnUse" x1="353.9" y1="15.649999999999977" x2="353.9" y2="557.15" spreadMethod="pad">
<stop  offset="0%" stop-color="#3810B9"/>

<stop  offset="100%" stop-color="#3658D6"/>
</linearGradient>

<g id="bck_0_Layer2_0_FILL">
<path fill="url(#Gradient_1)" stroke="none" d="
M 480 360
L 480 0 0 0 0 360 480 360 Z"/>
</g>

<g id="bck_0_Layer1_0_FILL">
<path fill="url(#Gradient_2)" stroke="none" d="
M 420.85 274.35
L 420.85 246.4 383.55 246.4 383.55 274.35 420.85 274.35
M 283.2 180.65
L 224.95 180.65 224.95 224.35 283.2 224.35 283.2 180.65
M 426.35 146.65
L 426.35 176.85 466.6 176.85 466.6 146.65 426.35 146.65
M 378.45 283.8
L 378.45 348.95 465.35 348.95 465.35 283.8 378.45 283.8
M 470.8 193.85
L 422.95 193.85 422.95 229.7 470.8 229.7 470.8 193.85
M 412.05 143.5
L 386.85 143.5 386.85 234.1 412.05 234.1 412.05 143.5
M 195.55 241.05
L 195.55 303.65 279 303.65 279 241.05 195.55 241.05
M 146.05 248.6
L 146.05 349.25 185.45 349.25 185.45 248.6 146.05 248.6
M 12 262.75
L 12 351.75 130.65 351.75 130.65 262.75 12 262.75
M 341.6 351.75
L 341.6 318.4 207.25 318.4 207.25 351.75 341.6 351.75
M 364.25 307.1
L 364.25 180 300.4 180 300.4 307.1 364.25 307.1
M 119.2 189.45
L 84.8 189.45 84.8 227.2 119.2 227.2 119.2 192.8 119.25 192.75 119.2 192.75 119.2 189.45
M 12 216.5
L 12 255.3 63.75 255.3 63.75 216.5 12 216.5
M 357.55 44.65
L 357.55 13.2 279.4 13.2 279.4 44.65 357.55 44.65
M 419.6 49.05
L 419.6 15.75 375.15 15.75 375.15 49.05 419.6 49.05
M 432.2 7.55
L 432.2 53.5 467.4 53.5 467.4 7.55 432.2 7.55
M 268.55 45.95
L 268.55 9.45 219.85 9.45 219.85 45.95 268.55 45.95
M 13.4 8.1
L 13.4 102.5 139.25 102.5 139.25 8.1 13.4 8.1
M 470.8 79.9
L 470.8 59.75 385.2 59.75 385.2 79.9 470.8 79.9
M 382.65 90.6
L 382.65 131.55 469.05 131.55 469.05 90.6 382.65 90.6
M 368 166.45
L 368 53.5 217.35 53.5 217.35 166.45 368 166.45
M 153.6 10.15
L 153.6 227.2 205.6 227.2 205.6 10.15 153.6 10.15
M 82.25 118.95
L 82.25 166.15 145.2 166.15 145.2 118.95 82.25 118.95
M 63.75 112.75
L 13.4 112.75 13.4 205.25 63.75 205.25 63.75 112.75 Z"/>
</g>

<g id="bck_0_Layer0_0_FILL">
<path fill="url(#Gradient_3)" stroke="none" d="
M 420.85 246.4
L 418.35 246.4 418.35 272.5 383.55 272.5 383.55 274.35 420.85 274.35 420.85 246.4
M 470.8 193.85
L 468.25 193.85 468.25 227.8 422.95 227.8 422.95 229.7 470.8 229.7 470.8 193.85
M 466.6 146.65
L 464.05 146.65 464.05 174.95 426.35 174.95 426.35 176.85 466.6 176.85 466.6 146.65
M 412.05 143.5
L 409.55 143.5 409.55 232.2 386.85 232.2 386.85 234.1 412.05 234.1 412.05 143.5
M 469.05 90.6
L 466.6 90.6 466.6 129.65 382.65 129.65 382.65 131.55 469.05 131.55 469.05 90.6
M 470.8 59.75
L 468.25 59.75 468.25 78 385.2 78 385.2 79.9 470.8 79.9 470.8 59.75
M 467.4 7.55
L 464.95 7.55 464.95 51.6 432.2 51.6 432.2 53.5 467.4 53.5 467.4 7.55
M 419.6 15.75
L 417.05 15.75 417.05 47.2 375.15 47.2 375.15 49.05 419.6 49.05 419.6 15.75
M 357.55 13.2
L 355 13.2 355 42.8 279.4 42.8 279.4 44.65 357.55 44.65 357.55 13.2
M 268.55 9.45
L 266 9.45 266 44.05 219.85 44.05 219.85 45.95 268.55 45.95 268.55 9.45
M 465.35 283.8
L 462.8 283.8 462.8 347.05 378.45 347.05 378.45 348.95 465.35 348.95 465.35 283.8
M 341.6 318.4
L 339.05 318.4 339.05 349.85 207.25 349.85 207.25 351.75 341.6 351.75 341.6 318.4
M 364.25 180
L 361.75 180 361.75 305.2 300.4 305.2 300.4 307.1 364.25 307.1 364.25 180
M 279 241.05
L 276.45 241.05 276.45 301.75 195.55 301.75 195.55 303.65 279 303.65 279 241.05
M 283.2 180.65
L 280.65 180.65 280.65 222.45 224.95 222.45 224.95 224.35 283.2 224.35 283.2 180.65
M 368 53.5
L 365.45 53.5 365.45 164.6 217.35 164.6 217.35 166.45 368 166.45 368 53.5
M 119.2 189.45
L 117.1 189.45 117.1 225.3 84.8 225.3 84.8 227.2 119.2 227.2 119.2 192.8 119.25 192.75 119.2 192.75 119.2 189.45
M 145.2 118.95
L 142.65 118.95 142.65 164.25 82.25 164.25 82.25 166.15 145.2 166.15 145.2 118.95
M 205.6 10.15
L 203.05 10.15 203.05 225.3 153.6 225.3 153.6 227.2 205.6 227.2 205.6 10.15
M 146.05 347.35
L 146.05 349.25 185.45 349.25 185.45 248.6 182.95 248.6 182.95 347.35 146.05 347.35
M 130.65 262.75
L 128.2 262.75 128.2 349.85 12 349.85 12 351.75 130.65 351.75 130.65 262.75
M 63.75 216.5
L 61.25 216.5 61.25 253.4 12 253.4 12 255.3 63.75 255.3 63.75 216.5
M 63.75 112.75
L 61.25 112.75 61.25 203.35 13.4 203.35 13.4 205.25 63.75 205.25 63.75 112.75
M 139.25 8.1
L 136.75 8.1 136.75 100.6 13.4 100.6 13.4 102.5 139.25 102.5 139.25 8.1 Z"/>
</g>
</defs>

<g transform="matrix( 1, 0, 0, 1, 0,0) ">
<g transform="matrix( 1, 0, 0, 1, 0,0) ">
<use xlink:href="#bck_0_Layer2_0_FILL"/>
</g>

<g transform="matrix( 1, 0, 0, 1, 0,0) ">
<use xlink:href="#bck_0_Layer1_0_FILL"/>
</g>

<g transform="matrix( 1, 0, 0, 1, 0,0) ">
<use xlink:href="#bck_0_Layer0_0_FILL"/>
</g>
</g>
</svg>
