
<svg xmlns="http://www.w3.org/2000/svg" version="1.1" xmlns:xlink="http://www.w3.org/1999/xlink" preserveAspectRatio="none" x="0px" y="0px" width="480px" height="360px" viewBox="0 0 480 360">
<defs>
<g id="Layer0_0_FILL">
<path fill="#FFA717" stroke="none" d="
M 240 158.65
Q 231.1 158.65 224.85 164.9 218.65 171.15 218.65 180 218.65 188.85 224.85 195.1 231.1 201.35 240 201.35 248.85 201.35 255.1 195.1 261.35 188.85 261.35 180 261.35 171.15 255.1 164.9 248.85 158.65 240 158.65 Z"/>
</g>

<path id="Layer0_0_1_STROKES" stroke="#000000" stroke-width="2" stroke-linejoin="miter" stroke-linecap="square" stroke-miterlimit="3" fill="none" d="
M 261.35 180
Q 261.35 188.85 255.1 195.1 248.85 201.35 240 201.35 231.1 201.35 224.85 195.1 218.65 188.85 218.65 180 218.65 171.15 224.85 164.9 231.1 158.65 240 158.65 248.85 158.65 255.1 164.9 261.35 171.15 261.35 180 Z"/>
</defs>

<g transform="matrix( 1, 0, 0, 1, 0,0) ">
<use xlink:href="#Layer0_0_FILL"/>

<use xlink:href="#Layer0_0_1_STROKES"/>
</g>
</svg>
